<svg id="图层_1" xmlns="http://www.w3.org/2000/svg" xmlns:xlink="http://www.w3.org/1999/xlink" viewBox="0 0 140 140"><style>@-webkit-keyframes rotate{0%{-webkit-transform:rotate(0deg);transform:rotate(0deg)}}@keyframes rotate{0%{-webkit-transform:rotate(0deg);transform:rotate(0deg)}}.st1{fill:#fff}</style><path class="st1" d="M70 15c30.33 0 55 24.67 55 55s-24.67 55-55 55-55-24.67-55-55 24.67-55 55-55m0-15C31.34 0 0 31.34 0 70s31.34 70 70 70 70-31.34 70-70S108.66 0 70 0z" opacity=".5"/><defs><path id="SVGID_1_" d="M70 15c30.33 0 55 24.67 55 55s-24.67 55-55 55-55-24.67-55-55 24.67-55 55-55m0-15C31.34 0 0 31.34 0 70s31.34 70 70 70 70-31.34 70-70S108.66 0 70 0z"/></defs><clipPath id="SVGID_2_"><use xlink:href="#SVGID_1_" overflow="visible"/></clipPath><g style="-webkit-animation:rotate 1s linear infinite;animation:rotate 1s linear infinite;-webkit-transform-origin:center;-ms-transform-origin:center;transform-origin:center;transform-box:fill-box" clip-path="url(#SVGID_2_)"><path class="st1" d="M86.1 22H53.9L45.5 0h49z"/></g></svg>